
<svg xmlns="http://www.w3.org/2000/svg" enable-background="new 0 0 4000 4000" viewBox="0 0 4000 4000"><path fill="#fff" d="M2352.42,3174.181c558.46-132.37,973.933-634.265,973.933-1233.199
			c0-699.929-567.405-1267.334-1267.334-1267.334c-595.53,0-1095.121,410.764-1230.907,964.425L2352.42,3174.181z"/><path fill="#234387" d="M2352.395,3204.438c-13.701,0-26.113-9.369-29.41-23.281c-3.854-16.256,6.201-32.559,22.458-36.412
			c559.733-132.672,950.659-627.678,950.659-1203.764c0-682.129-554.953-1237.083-1237.083-1237.083
			c-571.506,0-1065.591,387.109-1201.526,941.379c-3.979,16.226-20.361,26.153-36.586,22.175
			c-16.227-3.979-26.155-20.36-22.175-36.586c34.292-139.826,91.436-272.214,169.844-393.486
			c77.053-119.177,172.525-224.427,283.765-312.827c112.306-89.247,237.489-158.75,372.075-206.578
			c139.253-49.487,285.475-74.579,434.604-74.579c175.159,0,345.096,34.313,505.088,101.983
			c76.895,32.523,151.056,72.777,220.426,119.642c68.703,46.415,133.307,99.718,192.018,158.429s112.014,123.315,158.429,192.018
			c46.865,69.37,87.119,143.532,119.643,220.426c67.671,159.992,101.982,329.928,101.982,505.088
			c0,149.976-25.371,296.982-75.409,436.933c-48.358,135.253-118.6,260.929-208.772,373.537
			c-89.34,111.568-195.639,207.093-315.943,283.919c-122.484,78.22-256.082,134.825-397.081,168.246
			C2357.053,3204.172,2354.704,3204.438,2352.395,3204.438z"/><circle cx="1484.053" cy="2515.947" r="810.406" fill="#fff080"/><path fill="#234387" d="M1484.053,3356.604c-113.475,0-223.571-22.23-327.231-66.075
				c-100.108-42.342-190.008-102.952-267.203-180.146c-77.195-77.195-137.805-167.095-180.147-267.203
				c-43.845-103.66-66.075-213.757-66.075-327.231s22.23-223.571,66.075-327.23c42.342-100.108,102.953-190.009,180.147-267.204
				c77.195-77.194,167.095-137.805,267.203-180.147c103.66-43.845,213.756-66.075,327.231-66.075s223.571,22.23,327.231,66.075
				c100.108,42.342,190.008,102.953,267.203,180.147c77.195,77.195,137.806,167.095,180.147,267.204
				c43.845,103.659,66.075,213.756,66.075,327.23s-22.23,223.571-66.075,327.231c-42.342,100.108-102.952,190.008-180.147,267.203
				c-77.194,77.194-167.094,137.805-267.203,180.146C1707.624,3334.373,1597.527,3356.604,1484.053,3356.604z M1484.053,1735.793
				c-430.179,0-780.154,349.976-780.154,780.154s349.976,780.154,780.154,780.154c430.178,0,780.154-349.976,780.154-780.154
				S1914.231,1735.793,1484.053,1735.793z"/><path fill="#fff" d="M893.551,2755.884l194.51-490.11L893.551,2755.884z"/><path fill="#234387" d="M893.542,2786.143c-3.713,0-7.489-0.688-11.15-2.141c-15.529-6.163-23.122-23.748-16.958-39.277
						l194.51-490.11c6.163-15.528,23.748-23.121,39.277-16.959c15.529,6.163,23.122,23.748,16.958,39.277l-194.51,490.11
						C916.959,2778.91,905.578,2786.143,893.542,2786.143z"/><path fill="#fff" d="M1289.416,2755.884l-194.509-490.11L1289.416,2755.884z"/><path fill="#234387" d="M1289.424,2786.143c-12.037,0-23.417-7.231-28.126-19.1l-194.509-490.11
						c-6.163-15.529,1.43-33.114,16.958-39.277c15.531-6.159,33.114,1.431,39.277,16.959l194.509,490.11
						c6.163,15.529-1.43,33.114-16.958,39.277C1296.914,2785.454,1293.137,2786.143,1289.424,2786.143z"/><path fill="#fff" d="M937.537,2645.051h307.893H937.537z"/><path fill="#234387" d="M1245.43,2675.303H937.537c-16.707,0-30.251-13.544-30.251-30.251s13.544-30.251,30.251-30.251
					h307.893c16.707,0,30.251,13.544,30.251,30.251S1262.137,2675.303,1245.43,2675.303z"/><path fill="#fff" d="M1436.789,2755.884v-490.11V2755.884z"/><path fill="#234387" d="M1436.789,2786.135c-16.708,0-30.251-13.544-30.251-30.251v-490.11
					c0-16.707,13.543-30.251,30.251-30.251s30.251,13.544,30.251,30.251v490.11
					C1467.04,2772.591,1453.496,2786.135,1436.789,2786.135z"/><path fill="#234387" d="M1560.193,2541.08h-123.404c-16.708,0-30.251-13.544-30.251-30.251v-245.056
					c0-16.707,13.543-30.251,30.251-30.251h123.404c84.242,0,152.778,68.536,152.778,152.778
					C1712.971,2472.544,1644.435,2541.08,1560.193,2541.08z M1467.04,2480.578h93.153c50.881,0,92.276-41.396,92.276-92.276
					c0-50.882-41.395-92.277-92.276-92.277h-93.153V2480.578z"/><g><path fill="#fff" d="M1835.869,2755.884v-490.11V2755.884z"/><path fill="#234387" d="M1835.869,2786.135c-16.708,0-30.251-13.544-30.251-30.251v-490.11
					c0-16.707,13.543-30.251,30.251-30.251s30.251,13.544,30.251,30.251v490.11
					C1866.12,2772.591,1852.576,2786.135,1835.869,2786.135z"/><path fill="#234387" d="M1959.273,2541.08h-123.404c-16.707,0-30.251-13.544-30.251-30.251v-245.056
					c0-16.707,13.544-30.251,30.251-30.251h123.404c84.243,0,152.779,68.536,152.779,152.778
					C2112.052,2472.544,2043.516,2541.08,1959.273,2541.08z M1866.12,2480.578h93.153c50.881,0,92.277-41.396,92.277-92.276
					c0-50.882-41.396-92.277-92.277-92.277h-93.153V2480.578z"/></g><g><polygon fill="#5ad8fa" points="2363.17 1981.179 2569.53 1774.819 2787.602 1992.892 2787.602 1212.377 2007.108 1212.398 2225.181 1430.47 2018.821 1636.83"/><path fill="#234387" d="M2787.609,2023.144c-7.873,0.001-15.61-3.073-21.397-8.861l-196.683-196.682l-184.969,184.969
			c-11.813,11.814-30.969,11.814-42.781,0c-11.814-11.813-11.814-30.968,0-42.781l206.359-206.36
			c5.673-5.673,13.367-8.86,21.391-8.86c8.023,0,15.718,3.187,21.391,8.86l166.432,166.431v-677.23l-677.212,0.018l166.432,166.433
			c11.814,11.813,11.814,30.968,0,42.781l-206.359,206.36c-11.813,11.814-30.967,11.814-42.781,0
			c-11.814-11.814-11.814-30.968,0-42.782l184.969-184.969l-196.682-196.681c-8.652-8.652-11.24-21.664-6.558-32.967
			c4.682-11.304,15.712-18.675,27.948-18.675l780.494-0.021c8.023,0,15.718,3.187,21.392,8.86c5.673,5.673,8.86,13.368,8.86,21.391
			v780.515c0,12.235-7.37,23.267-18.675,27.948C2795.437,2022.391,2791.506,2023.144,2787.609,2023.144z"/></g></svg>