<svg xmlns="http://www.w3.org/2000/svg" viewBox="0 0 70 70"><path fill="#607264" d="M56.382 7.42v55.16a4.42 4.42 0 0 1-4.42 4.42H21.365a4.42 4.42 0 0 1-4.42-4.42V7.42A4.42 4.42 0 0 1 21.365 3h30.597a4.42 4.42 0 0 1 4.42 4.42z"/><path fill="#86967d" d="M37.147 3H21.365a4.42 4.42 0 0 0-4.42 4.42v37.653c11.158 0 20.202-9.045 20.202-20.203V3z"/><path fill="#4f6555" d="M56.38 7.422v55.162a4.411 4.411 0 0 1-4.412 4.411H21.37a4.397 4.397 0 0 1-4.121-2.819h7.183c16.087 0 29.128-13.041 29.128-29.128V3.3a4.435 4.435 0 0 1 2.82 4.12z"/><path fill="#f4efea" d="M53.067 7.42v55.16c0 .608-.497 1.105-1.105 1.105H21.365a1.108 1.108 0 0 1-1.105-1.105V7.42c0-.608.497-1.105 1.105-1.105h8.177l1.646 2.221h10.929l1.668-2.221h8.177c.608 0 1.105.497 1.105 1.105z"/><path fill="#eae4dd" d="M23.542 31.894V6.314h-2.177c-.608 0-1.105.498-1.105 1.106v55.16c0 .608.497 1.105 1.105 1.105h30.597c.608 0 1.105-.497 1.105-1.105v-2.298H51.93c-15.678 0-28.388-12.71-28.388-28.388z"/><path fill="#394a39" d="M34.079 6.823c0 .516-.42.936-.936.936a.941.941 0 1 1 .936-.936zm6.651.936c.517 0 .936-.42.936-.936a.94.94 0 0 0-.936-.947h-4.703a.941.941 0 1 0 0 1.883h4.703z"/><path fill="#d4cdc1" d="M46.225 32.867v7.022c0 .95-.77 1.72-1.72 1.72H24.592c-.949 0-1.718-.77-1.718-1.72v-7.022c0-.95.77-1.719 1.719-1.719h19.914c.95 0 1.719.77 1.719 1.72z"/><path fill="#607264" d="M43.884 42.038h-.862a.43.43 0 1 1 0-.86h.862a.43.43 0 1 1 0 .86zm-2.587 0h-.862a.43.43 0 1 1 0-.86h.862a.43.43 0 1 1 0 .86zm-2.586 0h-.862a.43.43 0 1 1 0-.86h.862a.43.43 0 1 1 0 .86zm-2.586 0h-.862a.43.43 0 1 1 0-.86h.862a.43.43 0 1 1 0 .86zm-2.586 0h-.862a.43.43 0 1 1 0-.86h.862a.43.43 0 1 1 0 .86zm-2.586 0h-.863a.43.43 0 1 1 0-.86h.863a.43.43 0 1 1 0 .86zm-2.587 0h-.862a.43.43 0 1 1 0-.86h.862a.43.43 0 1 1 0 .86zm-2.586 0h-.862a.43.43 0 1 1 0-.86h.862a.43.43 0 1 1 0 .86zm19.755-.341a.43.43 0 0 1-.258-.773c.174-.131.314-.304.404-.5a.43.43 0 0 1 .78.358 2.17 2.17 0 0 1-.668.829.428.428 0 0 1-.258.086zM23.343 41.5a.428.428 0 0 1-.312-.134 2.139 2.139 0 0 1-.518-.932.429.429 0 1 1 .83-.217c.055.207.163.4.312.558a.43.43 0 0 1-.312.725zm22.882-2.169a.43.43 0 0 1-.43-.43v-.862a.43.43 0 1 1 .86 0v.862a.43.43 0 0 1-.43.43zm-23.353-.295a.43.43 0 0 1-.43-.43v-.862a.43.43 0 1 1 .86 0v.862a.43.43 0 0 1-.43.43zm23.353-2.291a.43.43 0 0 1-.43-.43v-.862a.43.43 0 1 1 .86 0v.862a.43.43 0 0 1-.43.43zm-23.353-.296a.43.43 0 0 1-.43-.43v-.862a.43.43 0 1 1 .86 0v.862a.43.43 0 0 1-.43.43zm23.353-2.29a.43.43 0 0 1-.43-.43v-.863c0-.237.193-.44.43-.44a.42.42 0 0 1 .43.419v.883a.43.43 0 0 1-.43.43zm-23.353-.296a.43.43 0 0 1-.43-.43v-.567c0-.125.011-.248.032-.368a.43.43 0 0 1 .846.15c-.012.07-.018.144-.018.218v.567a.43.43 0 0 1-.43.43zm22.54-2.027a.425.425 0 0 1-.228-.066 1.28 1.28 0 0 0-.607-.19.43.43 0 0 1 .045-.86c.362.02.714.131 1.018.322a.43.43 0 0 1-.228.794zm-21.485-.126a.43.43 0 0 1-.166-.826c.263-.11.542-.166.83-.166h.18a.43.43 0 1 1 0 .86h-.18c-.173 0-.34.033-.498.099a.424.424 0 0 1-.166.033zm18.948-.133h-.862a.43.43 0 1 1 0-.86h.862a.43.43 0 1 1 0 .86zm-2.586 0h-.862a.43.43 0 1 1 0-.86h.862a.43.43 0 1 1 0 .86zm-2.586 0h-.862a.43.43 0 1 1 0-.86h.862a.43.43 0 1 1 0 .86zm-2.587 0h-.862a.43.43 0 1 1 0-.86h.863a.43.43 0 1 1 0 .86zm-2.586 0h-.862a.43.43 0 1 1 0-.86h.862a.43.43 0 1 1 0 .86zm-2.586 0h-.862a.43.43 0 1 1 0-.86h.862a.43.43 0 1 1 0 .86zm-2.586 0h-.862a.43.43 0 1 1 0-.86h.862a.43.43 0 1 1 0 .86z"/><path fill="#fff" d="M34.492 14.73v10.108c0 .95-.77 1.72-1.719 1.72h-8.242c-.95 0-1.72-.77-1.72-1.72V14.731c0-.95.77-1.72 1.72-1.72h8.242c.95 0 1.72.77 1.72 1.72z"/><path fill="#607264" d="M32.65 26.987h-.862a.43.43 0 1 1 0-.86h.862a.43.43 0 1 1 0 .86zm-2.586 0h-.862a.43.43 0 1 1 0-.86h.862a.43.43 0 1 1 0 .86zm-2.586 0h-.862a.43.43 0 1 1 0-.86h.862a.43.43 0 1 1 0 .86zm-2.586 0h-.361c-.211 0-.42-.03-.619-.09a.43.43 0 0 1 .249-.824c.118.036.243.054.37.054h.36a.43.43 0 1 1 0 .86zm9.26-.693a.43.43 0 0 1-.345-.686 1.29 1.29 0 0 0 .243-.592.43.43 0 1 1 .851.118 2.154 2.154 0 0 1-.404.987.43.43 0 0 1-.345.173zm-11.275-.556a.43.43 0 0 1-.414-.314 2.2 2.2 0 0 1-.081-.584v-.388a.43.43 0 1 1 .86 0v.386c0 .12.017.239.049.354a.43.43 0 0 1-.414.546zm11.615-1.957a.43.43 0 0 1-.43-.43v-.862a.43.43 0 1 1 .86 0v.862a.43.43 0 0 1-.43.43zm-11.68-.624a.43.43 0 0 1-.43-.43v-.861a.43.43 0 1 1 .86 0v.862a.43.43 0 0 1-.43.43zm11.68-1.962a.43.43 0 0 1-.43-.43v-.862a.43.43 0 1 1 .86 0v.862a.43.43 0 0 1-.43.43zm-11.68-.624a.43.43 0 0 1-.43-.43v-.862a.43.43 0 1 1 .86 0v.862a.43.43 0 0 1-.43.43zm11.68-1.962a.43.43 0 0 1-.43-.43v-.862a.43.43 0 1 1 .86 0v.862a.43.43 0 0 1-.43.43zm-11.68-.624a.43.43 0 0 1-.43-.43v-.862a.43.43 0 1 1 .86 0v.862a.43.43 0 0 1-.43.43zm11.68-1.963a.43.43 0 0 1-.43-.43v-.862l.001-.028a1.293 1.293 0 0 0-.193-.649.43.43 0 1 1 .73-.452 2.136 2.136 0 0 1 .322 1.13v.861a.43.43 0 0 1-.43.43zm-11.68-.624a.43.43 0 0 1-.43-.43v-.238c0-.262.047-.52.14-.763a.43.43 0 0 1 .804.306c-.057.146-.085.3-.085.457v.239a.43.43 0 0 1-.43.43zm1.368-1.92a.43.43 0 0 1-.087-.851c.141-.03.287-.045.436-.045h.51a.43.43 0 1 1 0 .86h-.508c-.088 0-.177.008-.263.026a.449.449 0 0 1-.088.01zm8.618-.037h-.862a.43.43 0 1 1 0-.86h.837c.238 0 .442.193.442.43s-.18.43-.417.43zm-2.586 0h-.862a.43.43 0 1 1 0-.86h.862a.43.43 0 1 1 0 .86zm-2.586 0h-.862a.43.43 0 1 1 0-.86h.862a.43.43 0 1 1 0 .86z"/><path fill="#b7bda3" d="M19.298 29.503v7.666a.754.754 0 0 1-.745.756.756.756 0 0 1-.756-.756v-7.666c0-.418.339-.756.756-.756.406 0 .745.338.745.756zm0-15.079v11.682a.754.754 0 0 1-.745.756.756.756 0 0 1-.756-.756V14.424c0-.417.339-.756.756-.756.406 0 .745.339.745.756z"/><path fill="#ffd347" d="M36.813 50.452v9.003a1.97 1.97 0 0 1-1.97 1.97H7.413a1.97 1.97 0 0 1-1.97-1.97v-9.003a1.97 1.97 0 0 1 1.97-1.97h27.43a1.97 1.97 0 0 1 1.97 1.97z"/><path fill="#fff25d" d="M28.033 48.481a7.788 7.788 0 0 1-7.787 7.788H5.438v-5.812c0-1.095.891-1.976 1.975-1.976h20.62z"/><path fill="#ffc447" d="M36.814 50.457v8.995c0 1.09-.884 1.975-1.975 1.975H7.413a1.959 1.959 0 0 1-1.941-1.67h21.703a8.15 8.15 0 0 0 8.15-8.15V48.55c.857.203 1.49.982 1.49 1.908z"/><path fill="#ffa912" d="M8.71 51.786c0-.396.327-.724.737-.724h16.22a.731.731 0 0 1 0 1.46H9.448a.734.734 0 0 1-.738-.736zm0 3.168c0-.41.327-.738.737-.738h23.375a.731.731 0 0 1 0 1.461H9.447a.731.731 0 0 1-.738-.723zm24.836 3.154c0 .41-.328.737-.724.737H9.447a.734.734 0 0 1-.738-.737c0-.396.328-.724.738-.724h23.375c.396 0 .724.328.724.724z"/><path fill="#51a3f1" d="M64.562 16.57v17.798a2.257 2.257 0 0 1-2.257 2.258H44.507a2.257 2.257 0 0 1-2.257-2.258V16.571a2.257 2.257 0 0 1 2.257-2.258h17.798a2.257 2.257 0 0 1 2.257 2.258z"/><path fill="#7dc4ff" d="M54.788 14.318v.328c0 6.925-5.614 12.539-12.54 12.539v-10.61a2.257 2.257 0 0 1 2.258-2.257h10.282z"/><path fill="#4087f1" d="M64.562 16.576v17.787a2.257 2.257 0 0 1-2.257 2.257H44.506a2.257 2.257 0 0 1-2.257-2.257v-.406h7.072c7.302 0 13.221-5.92 13.221-13.221V14.33a2.263 2.263 0 0 1 2.02 2.246z"/><path fill="#2866f4" d="M44.327 25.464c0-.656.538-1.194 1.193-1.194h15.76c.655 0 1.205.538 1.205 1.194a1.21 1.21 0 0 1-1.205 1.205H45.52a1.201 1.201 0 0 1-1.193-1.205zm0-4.283c0-.666.538-1.205 1.193-1.205h9.723c.667 0 1.205.539 1.205 1.205a1.2 1.2 0 0 1-1.205 1.194H45.52a1.198 1.198 0 0 1-1.193-1.194zm18.158 8.577c0 .655-.55 1.205-1.205 1.205H45.52c-.655 0-1.193-.55-1.193-1.205 0-.656.538-1.206 1.193-1.206h15.76c.655 0 1.205.55 1.205 1.206z"/></svg>