<svg xmlns="http://www.w3.org/2000/svg" viewBox="0 0 32 32"><g transform="translate(0 -1020.362)"><path fill="#f0f4f7" d="M23.503 1026.397v22.969h-19v-27.004h14.844" color="#000" overflow="visible" style="isolation:auto;mix-blend-mode:normal"/><path fill="#d2dce9" fill-rule="evenodd" d="M19.503 1022.365v4h4z"/><rect width="2" height="4" x="13" y="1038.362" fill="#f9b536" rx="0" ry="0"/><rect width="2" height="8.988" x="17" y="1033.374" fill="#f9b536" rx="0" ry="0"/><rect width="2" height="6.988" x="21" y="1035.374" fill="#f9b536" rx="0" ry="0"/><rect width="2" height="11.988" x="25" y="1030.375" fill="#f9b536" rx="0" ry="0"/><path fill="none" stroke="#8fb6d7" stroke-linecap="round" stroke-linejoin="round" d="M7.004 1024.862h1m-1 2h1m2.016-2h3.976m-3.976 2h3.976m.677 17h10.244"/><path fill="#ee7581" d="m7.479 1043.962-1.208 1.22-.757.762-.641.648-.545.55-1.045 1.054a.982.982 0 0 0 .004 1.383.959.959 0 0 0 1.37 0l4.196-4.234"/><path fill="#406b95" d="m8.329 1042.405-1.395 1.41 2.09 2.107 1.394-1.408"/><path fill="#105286" d="m8.329 1042.405-.698.705-.174.176 2.09 2.108.174-.176.697-.703"/><path fill="none" stroke="#105286" stroke-linecap="round" stroke-linejoin="round" d="M11.5 1028.862v13h17"/><ellipse cx="-741.228" cy="723.544" fill="none" stroke="#406b95" stroke-linejoin="round" rx="4.5" ry="4.524" transform="matrix(-.7039 -.7103 -.70392 .71028 0 0)"/></g></svg>