
<svg xmlns="http://www.w3.org/2000/svg" enable-background="new 0 0 4000 4000" viewBox="0 0 4000 4000"><polygon fill="#fff" points="1347.241 3314.795 2665.633 3314.795 2665.633 670.5 1087.951 670.5 1087.951 3029.56"/><path fill="#234387" d="M2665.633,3345.647H1347.241c-8.692,0-16.982-3.668-22.829-10.1l-259.29-285.235
				c-5.163-5.68-8.023-13.078-8.023-20.753V670.5c0-17.039,13.813-30.852,30.852-30.852h1577.682
				c17.039,0,30.853,13.813,30.853,30.852v2644.295C2696.485,3331.834,2682.672,3345.647,2665.633,3345.647z M1360.89,3283.943
				h1273.89V701.352H1118.803v2316.28L1360.89,3283.943z"/><rect width="305.578" height="654.907" x="2843.587" y="1337.741" fill="#5ad8fa"/><path fill="#234387" d="M3149.165,2023.5h-305.578c-17.039,0-30.853-13.813-30.853-30.853v-654.907
				c0-17.039,13.813-30.852,30.853-30.852h305.578c17.039,0,30.853,13.813,30.853,30.852v654.907
				C3180.018,2009.687,3166.204,2023.5,3149.165,2023.5z M2874.439,1961.795h243.873v-593.203h-243.873V1961.795z"/><polygon fill="#5ad8fa" points="2665.633 3314.795 3352.704 3314.795 3352.704 1992.648 2665.633 1600.98"/><path fill="#234387" d="M3352.704,3345.647h-687.071c-17.039,0-30.853-13.813-30.853-30.853V1600.979
				c0-10.992,5.849-21.154,15.354-26.676c9.505-5.522,21.229-5.57,30.778-0.127l687.071,391.668
				c9.628,5.489,15.573,15.72,15.573,26.803v1322.147C3383.557,3331.834,3369.743,3345.647,3352.704,3345.647z M2696.485,3283.942
				h625.366V2010.573l-625.366-356.493V3283.942z"/><polygon fill="#5ad8fa" points="1307.592 2216.112 1307.592 1479.885 1512.105 1479.885 1146.497 1114.277 780.908 1479.885 985.421 1479.885 985.421 2216.112"/><path fill="#234387" d="M1307.592,2246.964c-17.039,0-30.852-13.813-30.852-30.853v-736.226
			c0-17.039,13.813-30.852,30.852-30.852h130.029l-291.124-291.124l-291.108,291.124H985.42c17.039,0,30.852,13.813,30.852,30.852
			v736.226c0,17.039-13.813,30.853-30.852,30.853s-30.852-13.813-30.852-30.853v-705.374H780.908
			c-12.479,0-23.728-7.517-28.503-19.045c-4.776-11.529-2.136-24.798,6.687-33.623l365.589-365.608
			c5.786-5.786,13.633-9.037,21.816-9.037c8.183,0,16.03,3.25,21.816,9.036l365.608,365.608c8.824,8.824,11.463,22.094,6.688,33.623
			c-4.775,11.529-16.025,19.045-28.503,19.045h-173.661v705.374C1338.444,2233.15,1324.631,2246.964,1307.592,2246.964z"/><g><path fill="#fff080" d="M920.859,2074.493c-306.533,235.491-364.15,674.893-128.663,981.427
				c235.458,306.563,674.86,364.154,981.426,128.696c306.533-235.488,364.15-674.893,128.662-981.456
				C1666.827,1896.626,1227.425,1839.006,920.859,2074.493z"/><path fill="#234387" d="M1348.144,3360.407c-31.903,0-63.9-2.095-95.911-6.291
				c-94.093-12.337-183.48-42.215-265.679-88.805c-85.119-48.244-158.743-112.371-218.826-190.599
				c-60.089-78.218-103.066-165.885-127.736-260.564c-23.824-91.433-29.649-185.501-17.313-279.594
				c12.335-94.091,42.212-183.479,88.8-265.684c48.241-85.122,112.363-158.752,190.583-218.844c0-0.001,0.001-0.001,0.001-0.001
				c78.229-60.091,165.902-103.067,260.585-127.737c91.437-23.824,185.506-29.65,279.599-17.312
				c94.091,12.336,183.478,42.214,265.679,88.802c85.118,48.242,158.741,112.364,218.825,190.585
				c60.09,78.227,103.068,165.9,127.738,260.583c23.823,91.437,29.648,185.509,17.313,279.603s-42.213,183.483-88.801,265.688
				c-48.241,85.121-112.363,158.751-190.583,218.842c-78.232,60.086-165.905,103.059-260.586,127.726
				C1471.502,3352.523,1410.016,3360.407,1348.144,3360.407z M939.655,2098.959c-292.562,224.758-347.736,645.617-122.993,938.165
				c131.569,171.301,330.397,261.223,531.339,261.227c142.249,0.003,285.55-45.055,406.83-138.203
				c292.555-224.749,347.729-645.623,122.988-938.194c-108.86-141.72-266.396-232.562-443.591-255.794
				c-177.198-23.231-352.842,23.93-494.574,132.801L939.655,2098.959z"/><path fill="#234387" d="M1457.973,3011.451h-221.428c-85.621,0-155.279-69.632-155.279-155.221v-71.017
				c0-17.039,13.813-30.853,30.852-30.853s30.852,13.813,30.852,30.853v71.017c0,51.565,41.978,93.516,93.575,93.516h221.428
				c51.583,0,93.549-41.95,93.549-93.516v-102.286c0-51.583-41.966-93.549-93.549-93.549h-221.428
				c-85.621,0-155.279-69.646-155.279-155.25V2402.89c0-85.621,69.658-155.279,155.279-155.279h221.428
				c85.607,0,155.253,69.658,155.253,155.279v68.79c0,17.039-13.813,30.853-30.852,30.853s-30.852-13.813-30.852-30.853v-68.79
				c0-51.598-41.966-93.574-93.549-93.574h-221.428c-51.598,0-93.575,41.977-93.575,93.574v102.256
				c0,51.581,41.978,93.545,93.575,93.545h221.428c85.607,0,155.253,69.646,155.253,155.254v102.286
				C1613.227,2941.819,1543.58,3011.451,1457.973,3011.451z"/><path fill="#234387" d="M1347.257 3177.257c-17.039 0-30.852-13.813-30.852-30.853v-165.795c0-17.039 13.813-30.853 30.852-30.853s30.852 13.813 30.852 30.853v165.795C1378.109 3163.443 1364.296 3177.257 1347.257 3177.257zM1347.257 2309.337c-17.039 0-30.852-13.813-30.852-30.853v-165.795c0-17.039 13.813-30.853 30.852-30.853s30.852 13.813 30.852 30.853v165.795C1378.109 2295.523 1364.296 2309.337 1347.257 2309.337z"/></g><g><polygon fill="#5ad8fa" points="2284.389 3314.795 2284.389 2578.569 2488.902 2578.569 2123.294 2212.96 1757.705 2578.569 1962.218 2578.569 1962.218 3314.795"/><path fill="#234387" d="M2284.39,3345.647h-322.172c-17.039,0-30.852-13.813-30.852-30.853v-705.373h-173.661
			c-12.479,0-23.728-7.517-28.503-19.046c-4.776-11.528-2.136-24.798,6.687-33.622l365.589-365.608
			c5.786-5.786,13.633-9.037,21.816-9.037c8.183,0,16.029,3.251,21.815,9.037l365.608,365.608
			c8.824,8.823,11.464,22.094,6.688,33.622s-16.025,19.046-28.504,19.046h-173.66v705.373
			C2315.242,3331.834,2301.429,3345.647,2284.39,3345.647z M1993.07,3283.942h260.467v-705.373
			c0-17.039,13.813-30.853,30.853-30.853h130.029l-291.124-291.124l-291.109,291.124h130.032c17.039,0,30.852,13.813,30.852,30.853
			V3283.942z"/></g></svg>